<svg t="1730703304557" class="icon" viewBox="0 0 1562 1024" version="1.1" xmlns="http://www.w3.org/2000/svg" p-id="7247" width="200" height="200"><path d="M1472.564762 558.340339l20.445288-20.549424c2.048-2.048 5.12-2.048 6.647322 0l11.246644 11.298712c2.048 2.065356 2.048 5.137356 0 6.682034l-20.445288 20.532068 20.445288 20.532068c2.048 2.065356 2.048 5.137356 0 6.682034l-10.743322 10.778033c-2.030644 2.048-5.102644 2.048-6.647322 0l-20.445288-20.532067-20.445288 20.532067c-2.048 2.048-5.12 2.048-6.647322 0l-11.264-11.281356c-2.030644-2.065356-2.030644-5.154712 0-6.682033l20.462644-20.549424-20.462644-20.532068c-2.030644-2.048-2.030644-5.137356 0-6.664678l10.760678-10.79539c2.030644-2.048 5.102644-2.048 6.629966 0l20.462644 20.549424z m-1231.22983 210.492746l20.445288-20.532068c2.048-2.065356 5.12-2.065356 6.647322 0l11.264 11.281356c2.030644 2.065356 2.030644 5.137356 0 6.682034l-20.462644 20.532068 20.462644 20.549423c2.030644 2.048 2.030644 5.12 0 6.664678l-10.760678 10.778034c-2.030644 2.065356-5.102644 2.065356-6.629966 0l-20.445289-20.532068-20.462644 20.532068c-2.048 2.065356-5.102644 2.065356-6.647322 0l-11.246644-11.281356c-2.048-2.065356-2.048-5.137356 0-6.682034l20.445288-20.532067-20.445288-20.532068c-2.048-2.065356-2.048-5.137356 0-6.682034l10.743322-10.778034c2.048-2.065356 5.102644-2.065356 6.647322 0l20.445289 20.532068z m46.010576-735.717966L318.030796 2.308339c3.072-3.072 7.150644-3.072 10.24 0l13.797966 13.86739c3.054644 3.072 3.054644 7.706034 0 10.257356L311.366118 57.239864l30.685288 30.80678c3.054644 3.089356 3.054644 7.706034 0 10.274712l-13.294644 13.346712c-3.072 3.072-7.168 3.072-10.24 0l-30.667932-30.80678-30.685288 30.80678c-3.054644 3.072-7.671322 3.072-10.222644 0l-13.797966-13.86739c-3.072-3.072-3.072-7.688678 0-10.257356L263.810864 56.736542l-30.667932-30.806779c-3.072-3.089356-3.072-7.706034 0-10.274712L246.454932 2.308339c3.054644-3.072 7.671322-3.072 10.222644 0l30.667932 30.80678zM710.726118 980.367186h490.860475c9.198644 0 16.869966 7.688678 16.869966 16.93939v9.754034a17.060881 17.060881 0 0 1-16.869966 16.93939H384.504016a17.060881 17.060881 0 0 1-16.869966-16.93939v-9.754034c0-9.250712 7.671322-16.93939 16.869966-16.93939H501.587135l-186.628339-698.74983c-7.150644-25.68678 8.192-52.380203 34.26061-59.565559l590.049627-158.633221c25.565288-7.202712 52.154576 8.209356 59.305221 34.382102l132.94644 497.507797c98.165153 7.185356 175.381695 89.330983 175.381695 189.44 0 105.246373-84.870508 189.960678-189.179661 189.960678-57.274576 0-108.405153-25.166102-143.186441-65.70956l-263.810169 71.367593z m238.279593-107.81505a187.235797 187.235797 0 0 1-21.486644-87.803661c0-94.971661 69.54522-174.045288 160.039051-187.912678l-124.251119-466.180339a29.192678 29.192678 0 0 0-35.787932-20.532068l-545.549017 146.831186c-15.342644 4.113356-24.558644 20.028746-20.462644 35.944136l176.405695 660.254373a29.192678 29.192678 0 0 0 35.787932 20.532068l375.304678-101.133017zM75.672559 528.036881A75.671864 75.671864 0 0 1 0.000694 452.05261a75.671864 75.671864 0 0 1 75.671865-75.984271 75.671864 75.671864 0 0 1 75.671864 75.984271 75.671864 75.671864 0 0 1-75.671864 75.984271z m0-18.987389c31.18861 0 56.753898-25.68678 56.753898-56.996882 0-31.310102-25.565288-56.979525-56.753898-56.979525s-56.753898 25.669424-56.753899 56.979525c0 31.327458 25.565288 56.996881 56.753899 56.996882zM1249.627813 157.366237a66.47322 66.47322 0 0 1-66.47322-66.750915 66.47322 66.47322 0 1 1 132.94644 0A66.47322 66.47322 0 0 1 1249.627813 157.366237z m0-16.956745a49.742102 49.742102 0 0 0 49.603254-49.79417c0-27.214102-22.510644-49.811525-49.603254-49.811525a49.742102 49.742102 0 0 0-49.603254 49.811525c0 27.214102 22.510644 49.811525 49.603254 49.811525z m-132.425763 796.307525c83.846508 0 151.343729-68.278237 151.343729-151.968542 0-84.193627-68.000542-151.968542-151.343729-151.968543-83.343186 0-151.343729 68.278237-151.343729 151.968543 0 84.193627 67.479864 151.968542 151.343729 151.968542z m-618.686915-612.490848l257.197559-69.319593c10.222644-2.568678 20.965966 3.592678 23.517288 13.86739l1.024 4.616678c2.551322 10.274712-3.575322 21.052746-13.815322 23.604068l-256.659525 69.319593c-10.24 2.568678-20.965966-3.592678-23.534644-13.850034l-1.024-4.634034a18.813831 18.813831 0 0 1 13.294644-23.604068z m776.157288 656.141017h270.492203c9.198644 0 16.869966 7.688678 16.869967 16.93939v9.754034a17.060881 17.060881 0 0 1-16.869967 16.93939H1274.689779a17.060881 17.060881 0 0 1-16.887322-16.93939v-9.754034c-0.520678-9.250712 7.168-16.93939 16.887322-16.93939zM528.714457 436.657898l354.842034-95.492339c10.222644-2.568678 20.965966 3.592678 23.517288 13.86739l1.024 4.616678c2.551322 10.257356-3.575322 21.052746-13.815322 23.604068L539.423067 478.76339c-10.222644 2.568678-20.965966-3.592678-23.517288-13.884746l-1.024-4.599322a19.768407 19.768407 0 0 1 13.815322-23.621424z m30.16461 112.952407l159.015051-42.608813c10.222644-2.568678 20.965966 3.592678 23.517288 13.850033l1.024 4.634034c2.551322 10.257356-3.575322 21.03539-13.815322 23.604068l-159.015051 42.62617c-10.222644 2.551322-20.965966-3.610034-23.517288-13.884746l-1.024-4.599322a18.744407 18.744407 0 0 1 13.815322-23.621424zM152.385779 980.367186h149.781695c9.216 0 16.887322 7.688678 16.887322 16.93939v9.754034a17.060881 17.060881 0 0 1-16.869966 16.93939H152.368423a17.060881 17.060881 0 0 1-16.869966-16.93939v-9.754034c-0.520678-9.250712 7.150644-16.93939 16.869966-16.93939z m985.782237-112.952406c-10.24 2.568678-20.965966-3.089356-23.517288-13.364068a18.970034 18.970034 0 0 1 13.797966-23.08339c10.24-2.568678 20.965966 3.072 23.517288 13.346712a18.970034 18.970034 0 0 1-13.797966 23.08339z m21.989966-116.545085c-2.048 6.664678-7.671322 16.418712-16.887322 29.765424-4.599322 6.682034-7.671322 11.802034-8.174644 15.412067-0.520678 3.592678 0 9.233356 2.551322 17.460068l-26.589288 7.185356c-1.024-3.592678-1.527322-6.161356-2.030644-7.185356-2.048-8.730034-2.568678-15.91539-1.544678-22.076746 1.544678-6.161356 5.12-13.86739 11.767322-23.118101 6.647322-9.233356 10.725966-14.874034 11.749966-17.442712a20.48 20.48 0 0 0 1.041356-12.322712c-1.562034-5.658034-5.12-9.754034-10.760678-12.84339-5.605966-2.568678-12.253288-3.072-19.92461-1.024-7.168 2.048-12.791322 5.640678-16.887322 11.281356-4.078644 5.658034-5.623322 15.932746-5.102644 22.094102 0.520678 5.640678-25.061966 14.89139-27.613288 4.113356-2.551322-11.298712 0-24.645424 7.150644-35.944136 7.671322-11.298712 18.917966-19.004746 34.781288-23.100746 16.869966-4.634034 31.18861-3.592678 43.459254 2.568678 12.270644 6.161356 19.941966 14.874034 23.013966 26.693424 2.551322 5.137356 2.030644 12.322712 0 18.484068z" fill="#930a41" p-id="7248"></path></svg>